<svg xmlns="http://www.w3.org/2000/svg" viewBox="0 0 856 260" role="img" aria-label="Huerta Group Publishing">
<g transform="translate(4 15)"><g transform="scale(0.44921875)"><g transform="translate(214.76 392)"><path d="M209.33-93.07L209.33-0.34Q209.33 2.18 208.91 2.94Q208.49 3.70 207.65 3.70Q205.80 3.70 200.84 1.09Q195.89-1.51 189.67-5.04Q183.46-8.57 177.74-11.17Q172.03-13.78 168.50-13.78Q166.82-13.78 163.04-11.17Q159.26-8.57 153.05-5.21Q146.83-1.85 138.10 0.76Q129.36 3.36 117.77 3.36Q93.74 3.36 73.92-5.04Q54.10-13.44 39.56-28.98Q25.03-44.52 17.14-65.69Q9.24-86.86 9.24-112.22Q9.24-140.45 17.81-163.72Q26.38-186.98 42-203.70Q57.62-220.42 79.21-229.49Q100.80-238.56 126.84-238.56Q140.95-238.56 150.53-234.86Q160.10-231.17 165.48-227.47Q170.86-223.78 172.54-223.78Q175.39-223.78 180.43-227.39Q185.47-231 190.34-234.70Q195.22-238.39 197.40-238.39Q197.74-238.39 198.07-237.97Q198.41-237.55 198.74-235.54L211.18-163.13Q211.34-162.12 211.26-161.62Q211.18-161.11 210.67-160.78Q210.34-160.61 209.83-160.86Q209.33-161.11 208.82-161.95Q198.41-188.50 185.56-204.71Q172.70-220.92 158.17-228.31Q143.64-235.70 127.85-235.70Q107.18-235.70 91.48-222.85Q75.77-210 66.86-184.55Q57.96-159.10 57.96-120.96Q57.96-83.83 67.79-57.54Q77.62-31.25 94.08-17.30Q110.54-3.36 130.20-3.36Q135.74-3.36 141.96-5.04Q148.18-6.72 153.72-9.91Q159.26-13.10 162.79-17.64Q166.32-22.18 166.32-27.72L166.32-93.07Q166.32-95.09 164.72-96.18Q163.13-97.27 159.77-97.78L140.11-99.79Q139.10-99.96 138.60-100.30Q138.10-100.63 138.10-101.14Q138.10-101.47 138.52-101.81Q138.94-102.14 139.78-102.14L224.45-102.14Q225.29-102.14 225.62-101.81Q225.96-101.47 225.96-101.14Q225.96-100.63 225.54-100.38Q225.12-100.13 223.94-99.79L213.86-97.78Q211.51-97.10 210.42-96.10Q209.33-95.09 209.33-93.07" fill="#f7f2e9"/></g>
<g transform="translate(31.567999999999998 356)"><path d="M58.80-109.20L58.80-112.22L191.18-112.22L191.18-109.20L58.80-109.20M81.65-226.13L81.65-9.07Q81.65-7.06 83.33-6.05Q85.01-5.04 88.20-4.37L101.81-2.35Q103.82-2.02 103.82-1.18Q103.82-0.67 103.40-0.34Q102.98 0 102.14 0L14.11 0Q13.27 0 12.85-0.34Q12.43-0.67 12.43-1.18Q12.43-2.02 14.45-2.35L28.06-4.37Q31.42-5.04 33.01-6.05Q34.61-7.06 34.61-9.07L34.61-226.13Q34.61-228.14 33.01-229.24Q31.42-230.33 28.06-230.83L14.45-232.85Q12.43-233.18 12.43-234.19Q12.43-234.53 12.85-234.86Q13.27-235.20 14.11-235.20L102.14-235.20Q102.98-235.20 103.40-234.86Q103.82-234.53 103.82-234.19Q103.82-233.18 101.81-232.85L88.20-230.83Q85.01-230.33 83.33-229.24Q81.65-228.14 81.65-226.13M218.74-226.13L218.74-9.07Q218.74-7.06 220.33-6.05Q221.93-5.04 225.12-4.37L238.73-2.35Q240.74-2.02 240.74-1.18Q240.74-0.67 240.41-0.34Q240.07 0 239.23 0L151.20 0Q150.36 0 149.94-0.34Q149.52-0.67 149.52-1.18Q149.52-2.02 151.54-2.35L165.14-4.37Q168.50-5.04 170.10-6.05Q171.70-7.06 171.70-9.07L171.70-226.13Q171.70-228.14 170.10-229.24Q168.50-230.33 165.14-230.83L151.54-232.85Q149.52-233.18 149.52-234.19Q149.52-234.53 149.94-234.86Q150.36-235.20 151.20-235.20L239.23-235.20Q240.07-235.20 240.41-234.86Q240.74-234.53 240.74-234.19Q240.74-233.18 238.73-232.85L225.12-230.83Q221.93-230.33 220.33-229.24Q218.74-228.14 218.74-226.13" fill="#f7f2e9"/></g>

    <g transform="translate(27 0)">
      <path d="M368 64
               C 330 130, 300 214, 284 296
               C 276 338, 269 388, 265 428
               L 256 428
               C 260 386, 268 336, 277 293
               C 294 209, 326 126, 364 60 Z" fill="#f7f2e9"/>
      <path d="M366 62
               C 330 98, 302 148, 288 202
               L 305 198 L 289 218
               C 284 238, 281 256, 280 272
               L 296 267 L 280 288
               C 279 297, 279 305, 280 311
               C 294 301, 306 285, 316 264
               L 320 270
               C 331 242, 340 210, 347 174
               L 353 182
               C 360 144, 364 104, 366 62 Z" fill="#f7f2e9"/>
      <path d="M366 62
               C 350 110, 337 162, 325 216
               C 316 252, 303 293, 280 311
               C 284 313, 290 312, 295 308
               C 312 292, 324 262, 332 228
               C 344 174, 357 116, 366 62 Z" fill="#f7f2e9" opacity="0.3"/>
      <path d="M264 428 L 231 462 L 270 446 Z" fill="#f7f2e9"/>
    </g>

    <g>
      <path d="M256 452 C 206 408, 124 396, 50 406 L 66 386 C 136 378, 210 396, 256 436 Z" fill="#f7f2e9"/>
      <path d="M256 464 C 198 426, 110 416, 32 428 L 44 410 C 120 400, 204 414, 256 452 Z" fill="#f7f2e9"/>
      <path d="M256 476 C 190 442, 94 436, 14 450 L 24 434 C 104 420, 196 432, 256 464 Z" fill="#f7f2e9"/>
      <path d="M256 452 C 306 408, 388 396, 462 406 L 446 386 C 376 378, 302 396, 256 436 Z" fill="#f7f2e9"/>
      <path d="M256 464 C 314 426, 402 416, 480 428 L 468 410 C 392 400, 308 414, 256 452 Z" fill="#f7f2e9"/>
      <path d="M256 476 C 322 442, 418 436, 498 450 L 488 434 C 408 420, 316 432, 256 464 Z" fill="#f7f2e9"/>
      <path d="M242 460 L 270 460 L 265 484 L 247 484 Z" fill="#f7f2e9"/>
    </g></g></g>
<g transform="translate(286 59)"><g transform="translate(0 64)"><path d="M11.20-20.80L11.20-21.38L36.42-21.38L36.42-20.80L11.20-20.80M15.55-43.07L15.55-1.73Q15.55-1.34 15.87-1.15Q16.19-0.96 16.80-0.83L19.39-0.45Q19.78-0.38 19.78-0.22Q19.78-0.13 19.70-0.06Q19.62 0 19.46 0L2.69 0Q2.53 0 2.45-0.06Q2.37-0.13 2.37-0.22Q2.37-0.38 2.75-0.45L5.34-0.83Q5.98-0.96 6.29-1.15Q6.59-1.34 6.59-1.73L6.59-43.07Q6.59-43.46 6.29-43.66Q5.98-43.87 5.34-43.97L2.75-44.35Q2.37-44.42 2.37-44.61Q2.37-44.67 2.45-44.74Q2.53-44.80 2.69-44.80L19.46-44.80Q19.62-44.80 19.70-44.74Q19.78-44.67 19.78-44.61Q19.78-44.42 19.39-44.35L16.80-43.97Q16.19-43.87 15.87-43.66Q15.55-43.46 15.55-43.07M41.66-43.07L41.66-1.73Q41.66-1.34 41.97-1.15Q42.27-0.96 42.88-0.83L45.47-0.45Q45.86-0.38 45.86-0.22Q45.86-0.13 45.79-0.06Q45.73 0 45.57 0L28.80 0Q28.64 0 28.56-0.06Q28.48-0.13 28.48-0.22Q28.48-0.38 28.86-0.45L31.46-0.83Q32.10-0.96 32.40-1.15Q32.70-1.34 32.70-1.73L32.70-43.07Q32.70-43.46 32.40-43.66Q32.10-43.87 31.46-43.97L28.86-44.35Q28.48-44.42 28.48-44.61Q28.48-44.67 28.56-44.74Q28.64-44.80 28.80-44.80L45.57-44.80Q45.73-44.80 45.79-44.74Q45.86-44.67 45.86-44.61Q45.86-44.42 45.47-44.35L42.88-43.97Q42.27-43.87 41.97-43.66Q41.66-43.46 41.66-43.07 M92.19-19.36L91.01-39.52Q90.91-41.22 90.11-42.26Q89.31-43.30 87.49-43.81L85.18-44.35Q84.99-44.42 84.93-44.46Q84.86-44.51 84.86-44.61Q84.86-44.67 84.93-44.74Q84.99-44.80 85.12-44.80L96.99-44.80Q97.12-44.80 97.18-44.74Q97.25-44.67 97.25-44.61Q97.25-44.51 97.15-44.45Q97.06-44.38 96.86-44.32L94.91-43.74Q93.38-43.30 92.48-42.19Q91.58-41.09 91.68-39.55L92.83-19.68Q92.96-17.95 93.06-16.26Q93.15-14.56 93.15-12.80Q93.15-9.06 91.71-5.97Q90.27-2.88 87.07-1.06Q83.87 0.77 78.59 0.77Q72.67 0.77 68.78-0.91Q64.90-2.59 63.02-5.50Q61.15-8.42 61.15-12.13Q61.15-13.06 61.22-14.53Q61.28-16 61.38-17.49Q61.47-18.98 61.54-20.03L62.94-43.07Q62.98-43.46 62.66-43.65Q62.34-43.84 61.70-43.97L59.10-44.35Q58.72-44.45 58.72-44.61Q58.72-44.67 58.80-44.74Q58.88-44.80 59.04-44.80L75.81-44.80Q75.94-44.80 76.02-44.74Q76.10-44.67 76.10-44.61Q76.10-44.51 76.02-44.46Q75.94-44.42 75.71-44.35L73.02-43.97Q72.38-43.84 72.10-43.65Q71.81-43.46 71.78-43.01L70.43-20.26Q70.27-17.79 70.26-15.73Q70.24-13.66 70.24-12.29Q70.24-5.98 72.94-3.06Q75.65-0.13 80.35-0.13Q83.94-0.13 86.67-1.62Q89.41-3.10 90.93-5.89Q92.45-8.67 92.45-12.48Q92.45-14.62 92.35-16.29Q92.26-17.95 92.19-19.36 M119.74-22.91L119.74-23.52L128.26-23.52Q130.88-23.52 132.13-24.72Q133.38-25.92 133.76-29.12Q133.79-29.31 133.84-29.38Q133.89-29.44 133.95-29.44Q134.21-29.44 134.30-29.06L137.66-17.98Q137.73-17.82 137.68-17.73Q137.63-17.63 137.54-17.60Q137.47-17.57 137.39-17.58Q137.31-17.60 137.15-17.73Q135.71-19.78 134.53-20.91Q133.34-22.05 132.08-22.48Q130.82-22.91 129.09-22.91L119.74-22.91M108.16-44.61Q108.16-44.67 108.24-44.74Q108.32-44.80 108.48-44.80L135.87-44.80Q136.58-44.80 137.17-45.01Q137.76-45.22 138.16-45.44Q138.56-45.66 138.69-45.66Q138.75-45.66 138.82-45.55Q138.88-45.44 138.98-45.02L141.79-33.60Q141.86-33.38 141.82-33.30Q141.79-33.22 141.70-33.15Q141.63-33.15 141.55-33.18Q141.47-33.22 141.34-33.38Q139.23-36.70 137.55-38.82Q135.87-40.93 134.43-42.11Q132.99-43.30 131.63-43.74Q130.27-44.19 128.80-44.19L121.34-44.19L121.34-2.05Q121.34-1.31 121.74-0.96Q122.14-0.61 122.91-0.61L129.15-0.61Q131.10-0.61 132.91-1.65Q134.72-2.69 136.93-5.60Q139.14-8.51 142.14-14.21Q142.24-14.34 142.32-14.42Q142.40-14.50 142.50-14.46Q142.59-14.43 142.62-14.30Q142.66-14.18 142.59-13.95L139.23 0.19Q139.14 0.61 139.09 0.74Q139.04 0.86 138.94 0.86Q138.75 0.86 138.34 0.64Q137.92 0.42 137.25 0.21Q136.58 0 135.62 0L108.48 0Q108.32 0 108.24-0.06Q108.16-0.13 108.16-0.19Q108.16-0.38 108.54-0.45L111.14-0.83Q111.78-0.96 112.08-1.15Q112.38-1.34 112.38-1.73L112.38-43.07Q112.38-43.46 112.08-43.66Q111.78-43.87 111.14-43.97L108.54-44.35Q108.16-44.42 108.16-44.61 M191.36-29.15Q191.36-25.92 189.94-23.33Q188.51-20.74 185.90-19.06Q183.30-17.38 179.68-16.74Q179.04-16.64 178.37-16.56Q177.70-16.48 176.99-16.43Q176.29-16.38 175.55-16.38Q173.02-16.38 171.15-16.70Q169.28-17.02 167.86-17.65Q166.43-18.27 165.28-19.20L165.57-19.68Q166.66-18.78 167.87-18.27Q169.09-17.76 170.43-17.54Q171.78-17.31 173.22-17.31Q177.34-17.31 179.84-20.13Q182.34-22.94 182.34-28.74Q182.34-33.22 180.69-36.70Q179.04-40.19 176.22-42.19Q173.41-44.19 169.86-44.19L167.04-44.19L167.04-2.14Q167.04-1.54 167.33-1.25Q167.62-0.96 168.29-0.83L170.88-0.45Q171.07-0.42 171.17-0.37Q171.26-0.32 171.26-0.19Q171.26 0 170.94 0L154.18 0Q154.02 0 153.94-0.06Q153.86-0.13 153.86-0.19Q153.86-0.38 154.24-0.45L156.83-0.83Q157.50-0.96 157.79-1.25Q158.08-1.54 158.08-2.14L158.08-43.07Q158.08-43.46 157.78-43.66Q157.47-43.87 156.83-43.97L154.24-44.35Q153.86-44.42 153.86-44.61Q153.86-44.67 153.94-44.74Q154.02-44.80 154.18-44.80L169.82-44.80Q176.58-44.80 181.39-42.86Q186.21-40.93 188.78-37.41Q191.36-33.89 191.36-29.15M181.63-2.91L173.50-16.96L181.86-17.92L191.10-2.50Q191.78-1.44 192.53-1.06Q193.28-0.67 194.24-0.45Q194.43-0.38 194.53-0.35Q194.62-0.32 194.62-0.19Q194.62-0.13 194.54-0.06Q194.46 0 194.30 0L179.62 0Q179.33 0 179.33-0.19Q179.33-0.32 179.42-0.35Q179.52-0.38 179.71-0.45L181.06-0.70Q181.86-0.96 182.03-1.44Q182.21-1.92 181.63-2.91 M207.74-44.80L235.71-44.80Q236.38-44.80 236.96-45.01Q237.54-45.22 237.97-45.44Q238.40-45.66 238.53-45.66Q238.62-45.66 238.69-45.57Q238.75-45.47 238.82-44.99L240.83-32.70Q240.90-32.48 240.86-32.37Q240.83-32.26 240.74-32.19Q240.64-32.19 240.54-32.26Q240.45-32.32 240.35-32.45Q238.27-37.50 236.54-40.02Q234.82-42.53 233.26-43.38Q231.71-44.22 230.18-44.22L226.34-44.22L226.34-1.73Q226.34-1.34 226.66-1.15Q226.98-0.96 227.58-0.83L230.18-0.45Q230.56-0.38 230.56-0.19Q230.56 0 230.24 0L213.47 0Q213.31 0 213.23-0.06Q213.15-0.13 213.15-0.19Q213.15-0.38 213.54-0.45L216.13-0.83Q216.77-0.96 217.07-1.15Q217.38-1.34 217.38-1.73L217.38-44.22L213.54-44.22Q212.03-44.22 210.50-43.28Q208.96-42.34 207.22-39.79Q205.47-37.25 203.36-32.45Q203.26-32.32 203.17-32.26Q203.07-32.19 202.98-32.19Q202.88-32.26 202.86-32.37Q202.85-32.48 202.88-32.70L204.90-44.99Q204.96-45.47 205.04-45.57Q205.12-45.66 205.18-45.66Q205.31-45.66 205.66-45.44Q206.02-45.22 206.56-45.01Q207.10-44.80 207.74-44.80 M257.89-16.64L258.05-17.25L274.34-17.25L274.43-16.64L257.89-16.64M259.78-0.19Q259.78-0.13 259.71-0.06Q259.65 0 259.52 0L249.31 0Q249.22 0 249.15-0.06Q249.09-0.13 249.09-0.19Q249.09-0.32 249.18-0.37Q249.28-0.42 249.34-0.45L250.56-0.80Q251.58-1.15 252.62-2.27Q253.66-3.39 254.37-5.73L264.70-40.93Q265.09-42.18 264.72-42.94Q264.35-43.71 263.39-44.13Q263.01-44.38 262.83-44.45Q262.66-44.51 262.66-44.61Q262.66-44.70 262.74-44.75Q262.82-44.80 262.98-44.80L275.42-44.80Q275.55-44.80 275.62-44.75Q275.68-44.70 275.68-44.61Q275.68-44.51 275.54-44.42Q275.39-44.32 275.01-44.16Q274.24-44.03 274.08-43.73Q273.92-43.42 274.18-42.56L287.07-2.11Q287.33-1.38 287.81-0.99Q288.29-0.61 289.06-0.51Q289.25-0.45 289.33-0.38Q289.41-0.32 289.41-0.19Q289.41-0.13 289.33-0.06Q289.25 0 289.12 0L275.01 0Q274.88 0 274.80-0.06Q274.72-0.13 274.72-0.19Q274.72-0.32 274.82-0.35Q274.91-0.38 275.10-0.45L276.64-0.70Q277.41-0.90 277.60-1.31Q277.79-1.73 277.54-2.53L265.22-41.44L265.98-43.10L254.94-5.63Q254.56-4.32 254.93-3.36Q255.30-2.40 256.22-1.76Q257.15-1.12 258.43-0.70L259.46-0.45Q259.65-0.42 259.71-0.37Q259.78-0.32 259.78-0.19 M354.91-17.73L354.91-0.06Q354.91 0.42 354.83 0.56Q354.75 0.70 354.59 0.70Q354.24 0.70 353.30 0.21Q352.35-0.29 351.17-0.96Q349.98-1.63 348.90-2.13Q347.81-2.62 347.14-2.62Q346.82-2.62 346.10-2.13Q345.38-1.63 344.19-0.99Q343.01-0.35 341.34 0.14Q339.68 0.64 337.47 0.64Q332.90 0.64 329.12-0.96Q325.34-2.56 322.58-5.52Q319.81-8.48 318.30-12.51Q316.80-16.54 316.80-21.38Q316.80-26.75 318.43-31.18Q320.06-35.62 323.04-38.80Q326.02-41.98 330.13-43.71Q334.24-45.44 339.20-45.44Q341.89-45.44 343.71-44.74Q345.54-44.03 346.56-43.33Q347.58-42.62 347.90-42.62Q348.45-42.62 349.41-43.31Q350.37-44 351.30-44.70Q352.22-45.41 352.64-45.41Q352.70-45.41 352.77-45.33Q352.83-45.25 352.90-44.86L355.26-31.07Q355.30-30.88 355.28-30.78Q355.26-30.69 355.17-30.62Q355.10-30.59 355.01-30.64Q354.91-30.69 354.82-30.85Q352.83-35.90 350.38-38.99Q347.94-42.08 345.17-43.49Q342.40-44.90 339.39-44.90Q335.46-44.90 332.46-42.45Q329.47-40 327.78-35.15Q326.08-30.30 326.08-23.04Q326.08-15.97 327.95-10.96Q329.82-5.95 332.96-3.30Q336.10-0.64 339.84-0.64Q340.90-0.64 342.08-0.96Q343.26-1.28 344.32-1.89Q345.38-2.50 346.05-3.36Q346.72-4.22 346.72-5.28L346.72-17.73Q346.72-18.11 346.42-18.32Q346.11-18.53 345.47-18.62L341.73-19.01Q341.54-19.04 341.44-19.10Q341.34-19.17 341.34-19.26Q341.34-19.33 341.42-19.39Q341.50-19.46 341.66-19.46L357.79-19.46Q357.95-19.46 358.02-19.39Q358.08-19.33 358.08-19.26Q358.08-19.17 358-19.12Q357.92-19.07 357.70-19.01L355.78-18.62Q355.33-18.50 355.12-18.30Q354.91-18.11 354.91-17.73 M406.66-29.15Q406.66-25.92 405.23-23.33Q403.81-20.74 401.20-19.06Q398.59-17.38 394.98-16.74Q394.34-16.64 393.66-16.56Q392.99-16.48 392.29-16.43Q391.58-16.38 390.85-16.38Q388.32-16.38 386.45-16.70Q384.58-17.02 383.15-17.65Q381.73-18.27 380.58-19.20L380.86-19.68Q381.95-18.78 383.17-18.27Q384.38-17.76 385.73-17.54Q387.07-17.31 388.51-17.31Q392.64-17.31 395.14-20.13Q397.63-22.94 397.63-28.74Q397.63-33.22 395.98-36.70Q394.34-40.19 391.52-42.19Q388.70-44.19 385.15-44.19L382.34-44.19L382.34-2.14Q382.34-1.54 382.62-1.25Q382.91-0.96 383.58-0.83L386.18-0.45Q386.37-0.42 386.46-0.37Q386.56-0.32 386.56-0.19Q386.56 0 386.24 0L369.47 0Q369.31 0 369.23-0.06Q369.15-0.13 369.15-0.19Q369.15-0.38 369.54-0.45L372.13-0.83Q372.80-0.96 373.09-1.25Q373.38-1.54 373.38-2.14L373.38-43.07Q373.38-43.46 373.07-43.66Q372.77-43.87 372.13-43.97L369.54-44.35Q369.15-44.42 369.15-44.61Q369.15-44.67 369.23-44.74Q369.31-44.80 369.47-44.80L385.12-44.80Q391.87-44.80 396.69-42.86Q401.50-40.93 404.08-37.41Q406.66-33.89 406.66-29.15M396.93-2.91L388.80-16.96L397.15-17.92L406.40-2.50Q407.07-1.44 407.82-1.06Q408.58-0.67 409.54-0.45Q409.73-0.38 409.82-0.35Q409.92-0.32 409.92-0.19Q409.92-0.13 409.84-0.06Q409.76 0 409.60 0L394.91 0Q394.62 0 394.62-0.19Q394.62-0.32 394.72-0.35Q394.82-0.38 395.01-0.45L396.35-0.70Q397.15-0.96 397.33-1.44Q397.50-1.92 396.93-2.91 M440.58-45.44Q445.47-45.44 449.49-43.76Q453.50-42.08 456.40-39.01Q459.30-35.94 460.86-31.74Q462.43-27.55 462.43-22.56Q462.43-17.34 460.86-13.07Q459.30-8.80 456.43-5.73Q453.57-2.66 449.62-1.01Q445.66 0.64 440.90 0.64Q436 0.64 431.97-1.04Q427.94-2.72 425.06-5.79Q422.18-8.86 420.61-13.14Q419.04-17.41 419.04-22.59Q419.04-27.68 420.62-31.87Q422.21-36.06 425.10-39.10Q428-42.14 431.94-43.79Q435.87-45.44 440.58-45.44M453.34-15.71Q453.34-20.32 452.56-24.61Q451.78-28.90 450.40-32.53Q449.02-36.16 447.14-38.88Q445.25-41.60 443.02-43.12Q440.80-44.64 438.37-44.64Q435.33-44.64 433.01-42.90Q430.69-41.15 429.41-37.76Q428.13-34.37 428.13-29.47Q428.13-24.77 428.90-20.43Q429.66-16.10 431.06-12.42Q432.45-8.74 434.32-5.98Q436.19-3.23 438.43-1.70Q440.67-0.16 443.10-0.16Q446.24-0.16 448.54-1.89Q450.85-3.62 452.10-7.07Q453.34-10.53 453.34-15.71 M508.16-19.36L506.98-39.52Q506.88-41.22 506.08-42.26Q505.28-43.30 503.46-43.81L501.15-44.35Q500.96-44.42 500.90-44.46Q500.83-44.51 500.83-44.61Q500.83-44.67 500.90-44.74Q500.96-44.80 501.09-44.80L512.96-44.80Q513.09-44.80 513.15-44.74Q513.22-44.67 513.22-44.61Q513.22-44.51 513.12-44.45Q513.02-44.38 512.83-44.32L510.88-43.74Q509.34-43.30 508.45-42.19Q507.55-41.09 507.65-39.55L508.80-19.68Q508.93-17.95 509.02-16.26Q509.12-14.56 509.12-12.80Q509.12-9.06 507.68-5.97Q506.24-2.88 503.04-1.06Q499.84 0.77 494.56 0.77Q488.64 0.77 484.75-0.91Q480.86-2.59 478.99-5.50Q477.12-8.42 477.12-12.13Q477.12-13.06 477.18-14.53Q477.25-16 477.34-17.49Q477.44-18.98 477.50-20.03L478.91-43.07Q478.94-43.46 478.62-43.65Q478.30-43.84 477.66-43.97L475.07-44.35Q474.69-44.45 474.69-44.61Q474.69-44.67 474.77-44.74Q474.85-44.80 475.01-44.80L491.78-44.80Q491.90-44.80 491.98-44.74Q492.06-44.67 492.06-44.61Q492.06-44.51 491.98-44.46Q491.90-44.42 491.68-44.35L488.99-43.97Q488.35-43.84 488.06-43.65Q487.78-43.46 487.74-43.01L486.40-20.26Q486.24-17.79 486.22-15.73Q486.21-13.66 486.21-12.29Q486.21-5.98 488.91-3.06Q491.62-0.13 496.32-0.13Q499.90-0.13 502.64-1.62Q505.38-3.10 506.90-5.89Q508.42-8.67 508.42-12.48Q508.42-14.62 508.32-16.29Q508.22-17.95 508.16-19.36 M560.99-27.90Q560.99-23.58 558.99-20.38Q556.99-17.18 553.46-15.44Q549.92-13.70 545.28-13.70Q541.76-13.70 539.17-14.50Q536.58-15.30 534.40-16.90L534.53-17.34Q536-16.32 537.36-15.71Q538.72-15.10 540.02-14.85Q541.31-14.59 542.56-14.59Q545.31-14.59 547.49-16.19Q549.66-17.79 550.94-20.80Q552.22-23.81 552.22-28.10Q552.22-33.28 550.62-36.86Q549.02-40.45 546.27-42.34Q543.52-44.22 540.03-44.22L537.31-44.22L537.31-1.76Q537.31-1.38 537.60-1.18Q537.89-0.99 538.46-0.86L541.22-0.42Q541.38-0.38 541.46-0.35Q541.54-0.32 541.54-0.19Q541.54-0.13 541.46-0.06Q541.38 0 541.25 0L524.45 0Q524.32 0 524.22-0.06Q524.13-0.13 524.13-0.22Q524.13-0.38 524.48-0.45L527.23-0.86Q527.81-0.99 528.08-1.20Q528.35-1.41 528.35-1.73L528.35-42.94Q528.35-43.33 528.10-43.58Q527.84-43.84 527.30-43.94L524.42-44.38Q524.13-44.42 524.13-44.58Q524.13-44.70 524.21-44.75Q524.29-44.80 524.45-44.80L540.03-44.80Q546.27-44.80 550.99-42.69Q555.71-40.58 558.35-36.78Q560.99-32.99 560.99-27.90" fill="#f7f2e9"/></g>
<g transform="translate(129.428 128)"><path d="M20.74-14.82Q20.74-12.53 19.68-10.83Q18.62-9.13 16.74-8.20Q14.86-7.28 12.39-7.28Q10.52-7.28 9.15-7.70Q7.77-8.13 6.61-8.98L6.68-9.21Q7.46-8.67 8.19-8.35Q8.91-8.02 9.60-7.89Q10.29-7.75 10.95-7.75Q12.41-7.75 13.57-8.60Q14.72-9.45 15.40-11.05Q16.08-12.65 16.08-14.93Q16.08-17.68 15.23-19.58Q14.38-21.49 12.92-22.49Q11.46-23.49 9.61-23.49L8.16-23.49L8.16-0.94Q8.16-0.73 8.31-0.63Q8.47-0.53 8.77-0.46L10.23-0.22Q10.32-0.20 10.36-0.19Q10.40-0.17 10.40-0.10Q10.40-0.07 10.36-0.03Q10.32 0 10.25 0L1.33 0Q1.26 0 1.21-0.03Q1.16-0.07 1.16-0.12Q1.16-0.20 1.34-0.24L2.81-0.46Q3.11-0.53 3.26-0.64Q3.40-0.75 3.40-0.92L3.40-22.81Q3.40-23.02 3.26-23.15Q3.13-23.29 2.84-23.34L1.31-23.58Q1.16-23.60 1.16-23.68Q1.16-23.75 1.20-23.77Q1.24-23.80 1.33-23.80L9.61-23.80Q12.92-23.80 15.43-22.68Q17.94-21.56 19.34-19.54Q20.74-17.53 20.74-14.82 M52.09-10.29L51.46-21Q51.41-21.90 50.98-22.45Q50.56-23 49.59-23.27L48.37-23.56Q48.26-23.60 48.23-23.62Q48.20-23.65 48.20-23.70Q48.20-23.73 48.23-23.77Q48.26-23.80 48.33-23.80L54.64-23.80Q54.71-23.80 54.74-23.77Q54.77-23.73 54.77-23.70Q54.77-23.65 54.72-23.61Q54.67-23.58 54.57-23.55L53.53-23.24Q52.72-23 52.24-22.41Q51.77-21.83 51.82-21.01L52.43-10.46Q52.50-9.54 52.55-8.64Q52.60-7.74 52.60-6.80Q52.60-4.81 51.83-3.17Q51.07-1.53 49.37-0.56Q47.67 0.41 44.86 0.41Q41.72 0.41 39.65-0.48Q37.59-1.38 36.59-2.92Q35.60-4.47 35.60-6.44Q35.60-6.94 35.63-7.72Q35.67-8.50 35.72-9.29Q35.77-10.08 35.80-10.64L36.55-22.88Q36.57-23.09 36.40-23.19Q36.23-23.29 35.89-23.36L34.51-23.56Q34.31-23.61 34.31-23.70Q34.31-23.73 34.35-23.77Q34.39-23.80 34.48-23.80L43.38-23.80Q43.45-23.80 43.49-23.77Q43.54-23.73 43.54-23.70Q43.54-23.65 43.49-23.62Q43.45-23.60 43.33-23.56L41.91-23.36Q41.57-23.29 41.41-23.19Q41.26-23.09 41.24-22.85L40.53-10.76Q40.44-9.45 40.43-8.36Q40.43-7.26 40.43-6.53Q40.43-3.18 41.86-1.62Q43.30-0.07 45.80-0.07Q47.70-0.07 49.16-0.86Q50.61-1.65 51.42-3.13Q52.22-4.61 52.22-6.63Q52.22-7.77 52.17-8.65Q52.12-9.54 52.09-10.29 M87.94-5.73Q87.94-3.18 85.82-1.59Q83.71 0 79.63 0L68.22 0Q68.14 0 68.09-0.03Q68.05-0.07 68.05-0.10Q68.05-0.20 68.26-0.24L69.63-0.44Q69.99-0.51 70.14-0.66Q70.30-0.82 70.30-1.14L70.30-22.88Q70.30-23.09 70.17-23.19Q70.04-23.29 69.63-23.36L68.26-23.56Q68.05-23.60 68.05-23.70Q68.05-23.73 68.09-23.77Q68.14-23.80 68.22-23.80L76.52-23.80Q79.76-23.80 82.02-22.94Q84.27-22.08 85.43-20.57Q86.58-19.06 86.58-17.07Q86.58-15.40 85.67-14.10Q84.76-12.80 83.05-12.06Q81.35-11.32 78.97-11.32L79.70-11.42Q82.13-11.42 83.99-10.68Q85.85-9.95 86.90-8.66Q87.94-7.38 87.94-5.73M77.81-11.15L74.51-11.15L74.51-11.49L78.03-11.49Q79.48-11.49 80.44-12.10Q81.41-12.72 81.90-13.91Q82.38-15.10 82.38-16.80Q82.38-18.80 81.61-20.31Q80.84-21.81 79.49-22.64Q78.15-23.48 76.43-23.48L74.95-23.48L74.95-1.02Q74.95-0.65 75.20-0.48Q75.45-0.32 75.89-0.32L78.46-0.32Q79.95-0.32 81.04-1.01Q82.13-1.70 82.71-2.93Q83.28-4.16 83.28-5.80Q83.28-8.26 81.88-9.71Q80.48-11.15 77.81-11.15 M110.65-23.56L109.28-23.36Q108.95-23.31 108.78-23.20Q108.61-23.09 108.61-22.88L108.61-1.02Q108.61-0.65 108.83-0.48Q109.04-0.32 109.45-0.32L112.63-0.32Q113.44-0.32 114.20-0.65Q114.95-0.97 115.71-1.82Q116.47-2.67 117.27-4.25L118.93-7.55Q118.97-7.62 119.01-7.66Q119.05-7.70 119.10-7.68Q119.17-7.67 119.20-7.60Q119.22-7.53 119.19-7.41L117.59 0.10Q117.54 0.34 117.51 0.40Q117.49 0.46 117.44 0.46Q117.33 0.46 117.11 0.34Q116.89 0.22 116.53 0.11Q116.18 0 115.67 0L101.78 0Q101.69 0 101.65-0.03Q101.61-0.07 101.61-0.10Q101.61-0.20 101.81-0.24L103.19-0.44Q103.53-0.51 103.69-0.61Q103.85-0.71 103.85-0.92L103.85-22.88Q103.85-23.09 103.69-23.20Q103.53-23.31 103.19-23.36L101.81-23.56Q101.61-23.60 101.61-23.70Q101.61-23.73 101.65-23.77Q101.69-23.80 101.78-23.80L110.69-23.80Q110.77-23.80 110.81-23.77Q110.86-23.73 110.86-23.70Q110.86-23.60 110.65-23.56 M139.11-22.88L139.11-0.92Q139.11-0.71 139.28-0.61Q139.45-0.51 139.77-0.44L141.15-0.24Q141.36-0.20 141.36-0.12Q141.36-0.07 141.31-0.03Q141.27 0 141.19 0L132.28 0Q132.19 0 132.15-0.03Q132.11-0.07 132.11-0.12Q132.11-0.20 132.31-0.24L133.69-0.44Q134.03-0.51 134.19-0.61Q134.35-0.71 134.35-0.92L134.35-22.88Q134.35-23.09 134.19-23.20Q134.03-23.31 133.69-23.36L132.31-23.56Q132.11-23.60 132.11-23.70Q132.11-23.73 132.15-23.77Q132.19-23.80 132.28-23.80L141.19-23.80Q141.27-23.80 141.31-23.77Q141.36-23.73 141.36-23.70Q141.36-23.60 141.15-23.56L139.77-23.36Q139.45-23.31 139.28-23.20Q139.11-23.09 139.11-22.88 M164.41 0.36Q162.83 0.36 161.81-0.10Q160.80-0.56 160.24-1.01Q159.68-1.46 159.48-1.46Q159.36-1.46 159.09-1.18Q158.83-0.90 158.53-0.53Q158.22-0.15 157.96 0.14Q157.69 0.43 157.54 0.43Q157.44 0.43 157.34 0.34Q157.23 0.26 157.20 0.14L155.91-7.19Q155.89-7.29 155.90-7.35Q155.91-7.41 155.94-7.43Q155.99-7.46 156.05-7.43Q156.11-7.40 156.15-7.33Q157.57-4.42 158.91-2.82Q160.24-1.22 161.52-0.60Q162.79 0.03 164.03 0.03Q165.89 0.03 166.98-0.98Q168.08-1.99 168.08-3.94Q168.08-5.13 167.59-6.14Q167.09-7.14 165.91-8Q164.73-8.86 162.69-9.59Q160-10.54 158.41-11.69Q156.81-12.84 156.09-14.22Q155.38-15.61 155.38-17.34Q155.38-19.36 156.41-20.89Q157.44-22.42 159.22-23.28Q161.01-24.14 163.30-24.14Q164.73-24.14 165.66-23.79Q166.60-23.44 167.14-23.09Q167.69-22.75 167.94-22.75Q168.16-22.75 168.61-23.11Q169.06-23.48 169.49-23.84Q169.91-24.21 170.09-24.21Q170.17-24.21 170.24-24.16Q170.31-24.11 170.34-23.99L172.14-16.69Q172.16-16.59 172.15-16.54Q172.14-16.49 172.11-16.46Q172.07-16.44 172.01-16.46Q171.95-16.49 171.90-16.56Q170.37-19.41 169-20.99Q167.62-22.56 166.29-23.19Q164.97-23.82 163.59-23.82Q161.82-23.82 160.68-22.67Q159.53-21.52 159.53-19.52Q159.53-18.28 160-17.24Q160.46-16.20 161.59-15.34Q162.72-14.48 164.68-13.75Q167.48-12.75 169.09-11.61Q170.70-10.47 171.38-9.15Q172.06-7.82 172.06-6.22Q172.06-4.39 171.15-2.90Q170.24-1.41 168.53-0.53Q166.82 0.36 164.41 0.36 M190.82-11.05L190.82-11.36L204.22-11.36L204.22-11.05L190.82-11.05M193.14-22.88L193.14-0.92Q193.14-0.71 193.31-0.61Q193.48-0.51 193.80-0.44L195.18-0.24Q195.38-0.20 195.38-0.12Q195.38-0.07 195.34-0.03Q195.30 0 195.21 0L186.30 0Q186.22 0 186.18-0.03Q186.13-0.07 186.13-0.12Q186.13-0.20 186.34-0.24L187.71-0.44Q188.05-0.51 188.22-0.61Q188.38-0.71 188.38-0.92L188.38-22.88Q188.38-23.09 188.22-23.20Q188.05-23.31 187.71-23.36L186.34-23.56Q186.13-23.60 186.13-23.70Q186.13-23.73 186.18-23.77Q186.22-23.80 186.30-23.80L195.21-23.80Q195.30-23.80 195.34-23.77Q195.38-23.73 195.38-23.70Q195.38-23.60 195.18-23.56L193.80-23.36Q193.48-23.31 193.31-23.20Q193.14-23.09 193.14-22.88M207.01-22.88L207.01-0.92Q207.01-0.71 207.17-0.61Q207.33-0.51 207.66-0.44L209.03-0.24Q209.24-0.20 209.24-0.12Q209.24-0.07 209.20-0.03Q209.17 0 209.08 0L200.18 0Q200.09 0 200.05-0.03Q200-0.07 200-0.12Q200-0.20 200.21-0.24L201.59-0.44Q201.93-0.51 202.09-0.61Q202.25-0.71 202.25-0.92L202.25-22.88Q202.25-23.09 202.09-23.20Q201.93-23.31 201.59-23.36L200.21-23.56Q200-23.60 200-23.70Q200-23.73 200.05-23.77Q200.09-23.80 200.18-23.80L209.08-23.80Q209.17-23.80 209.20-23.77Q209.24-23.73 209.24-23.70Q209.24-23.60 209.03-23.56L207.66-23.36Q207.33-23.31 207.17-23.20Q207.01-23.09 207.01-22.88 M230.23-22.88L230.23-0.92Q230.23-0.71 230.40-0.61Q230.57-0.51 230.89-0.44L232.27-0.24Q232.48-0.20 232.48-0.12Q232.48-0.07 232.43-0.03Q232.39 0 232.31 0L223.40 0Q223.31 0 223.27-0.03Q223.23-0.07 223.23-0.12Q223.23-0.20 223.43-0.24L224.81-0.44Q225.15-0.51 225.31-0.61Q225.47-0.71 225.47-0.92L225.47-22.88Q225.47-23.09 225.31-23.20Q225.15-23.31 224.81-23.36L223.43-23.56Q223.23-23.60 223.23-23.70Q223.23-23.73 223.27-23.77Q223.31-23.80 223.40-23.80L232.31-23.80Q232.39-23.80 232.43-23.77Q232.48-23.73 232.48-23.70Q232.48-23.60 232.27-23.56L230.89-23.36Q230.57-23.31 230.40-23.20Q230.23-23.09 230.23-22.88 M252.57-0.10Q252.57-0.07 252.54-0.03Q252.50 0 252.43 0L245.91 0Q245.82 0 245.79-0.03Q245.75-0.07 245.75-0.10Q245.75-0.17 245.94-0.24L246.96-0.53Q247.71-0.76 248.22-1.29Q248.73-1.82 248.73-2.77L248.73-20.04Q248.73-20.28 248.70-20.39Q248.68-20.50 248.51-20.76L246.93-23.36Q246.86-23.49 246.79-23.60Q246.72-23.70 246.72-23.75Q246.72-23.78 246.75-23.79Q246.77-23.80 246.86-23.80L252.04-23.80Q252.14-23.80 252.22-23.72Q252.30-23.63 252.42-23.43L264.55-3.18L264.30-2.67L264.30-21.03Q264.30-22 263.79-22.53Q263.28-23.05 262.50-23.27L260.97-23.56Q260.80-23.63 260.80-23.70Q260.80-23.73 260.83-23.77Q260.87-23.80 260.93-23.80L267.46-23.80Q267.53-23.80 267.56-23.77Q267.60-23.73 267.60-23.70Q267.60-23.63 267.43-23.56L266.41-23.27Q265.66-23.05 265.15-22.53Q264.64-22 264.64-21.03L264.64-3.33Q264.64-3.13 264.70-2.97Q264.76-2.81 264.84-2.67L266.05-0.73Q266.22-0.42 266.29-0.29Q266.36-0.15 266.36-0.10Q266.36-0.05 266.31-0.03Q266.27 0 266.15 0L261.27 0Q261.04 0 261.04-0.24Q261.04-0.34 260.99-0.48Q260.95-0.63 260.87-0.73L248.35-21.23L249.05-21.23L249.05-2.77Q249.05-1.82 249.57-1.28Q250.09-0.75 250.84-0.53L252.40-0.24Q252.57-0.17 252.57-0.10 M300.82-9.42L300.82-0.03Q300.82 0.22 300.77 0.30Q300.73 0.37 300.65 0.37Q300.46 0.37 299.96 0.11Q299.46-0.15 298.83-0.51Q298.20-0.87 297.62-1.13Q297.04-1.39 296.68-1.39Q296.51-1.39 296.13-1.13Q295.75-0.87 295.12-0.53Q294.49-0.19 293.61 0.08Q292.72 0.34 291.55 0.34Q289.12 0.34 287.11-0.51Q285.11-1.36 283.64-2.93Q282.17-4.50 281.37-6.65Q280.57-8.79 280.57-11.36Q280.57-14.21 281.44-16.57Q282.30-18.92 283.88-20.61Q285.46-22.30 287.65-23.22Q289.83-24.14 292.47-24.14Q293.90-24.14 294.87-23.77Q295.83-23.39 296.38-23.02Q296.92-22.64 297.09-22.64Q297.38-22.64 297.89-23.01Q298.40-23.37 298.89-23.75Q299.39-24.12 299.61-24.12Q299.64-24.12 299.68-24.08Q299.71-24.04 299.74-23.83L301-16.51Q301.02-16.41 301.01-16.35Q301-16.30 300.95-16.27Q300.92-16.25 300.87-16.28Q300.82-16.30 300.76-16.39Q299.71-19.07 298.41-20.71Q297.11-22.36 295.64-23.10Q294.17-23.85 292.57-23.85Q290.48-23.85 288.89-22.55Q287.30-21.25 286.40-18.67Q285.50-16.10 285.50-12.24Q285.50-8.48 286.49-5.82Q287.49-3.16 289.15-1.75Q290.82-0.34 292.81-0.34Q293.37-0.34 294-0.51Q294.63-0.68 295.19-1Q295.75-1.33 296.11-1.79Q296.46-2.24 296.46-2.81L296.46-9.42Q296.46-9.62 296.30-9.73Q296.14-9.84 295.80-9.89L293.81-10.10Q293.71-10.12 293.66-10.15Q293.61-10.18 293.61-10.23Q293.61-10.27 293.65-10.30Q293.69-10.34 293.78-10.34L302.35-10.34Q302.43-10.34 302.46-10.30Q302.50-10.27 302.50-10.23Q302.50-10.18 302.46-10.16Q302.41-10.13 302.29-10.10L301.27-9.89Q301.04-9.83 300.93-9.72Q300.82-9.62 300.82-9.42" fill="#f7f2e9"/></g>
<rect x="0" y="116" width="107.428" height="2.5" fill="#f7f2e9"/>
         <rect x="454.572" y="116" width="107.428" height="2.5" fill="#f7f2e9"/></g>
</svg>
