<svg xmlns="http://www.w3.org/2000/svg" viewBox="0 0 512 512" role="img" aria-label="Huerta Group Publishing">
<g transform="translate(214.76 392)"><path d="M209.33-93.07L209.33-0.34Q209.33 2.18 208.91 2.94Q208.49 3.70 207.65 3.70Q205.80 3.70 200.84 1.09Q195.89-1.51 189.67-5.04Q183.46-8.57 177.74-11.17Q172.03-13.78 168.50-13.78Q166.82-13.78 163.04-11.17Q159.26-8.57 153.05-5.21Q146.83-1.85 138.10 0.76Q129.36 3.36 117.77 3.36Q93.74 3.36 73.92-5.04Q54.10-13.44 39.56-28.98Q25.03-44.52 17.14-65.69Q9.24-86.86 9.24-112.22Q9.24-140.45 17.81-163.72Q26.38-186.98 42-203.70Q57.62-220.42 79.21-229.49Q100.80-238.56 126.84-238.56Q140.95-238.56 150.53-234.86Q160.10-231.17 165.48-227.47Q170.86-223.78 172.54-223.78Q175.39-223.78 180.43-227.39Q185.47-231 190.34-234.70Q195.22-238.39 197.40-238.39Q197.74-238.39 198.07-237.97Q198.41-237.55 198.74-235.54L211.18-163.13Q211.34-162.12 211.26-161.62Q211.18-161.11 210.67-160.78Q210.34-160.61 209.83-160.86Q209.33-161.11 208.82-161.95Q198.41-188.50 185.56-204.71Q172.70-220.92 158.17-228.31Q143.64-235.70 127.85-235.70Q107.18-235.70 91.48-222.85Q75.77-210 66.86-184.55Q57.96-159.10 57.96-120.96Q57.96-83.83 67.79-57.54Q77.62-31.25 94.08-17.30Q110.54-3.36 130.20-3.36Q135.74-3.36 141.96-5.04Q148.18-6.72 153.72-9.91Q159.26-13.10 162.79-17.64Q166.32-22.18 166.32-27.72L166.32-93.07Q166.32-95.09 164.72-96.18Q163.13-97.27 159.77-97.78L140.11-99.79Q139.10-99.96 138.60-100.30Q138.10-100.63 138.10-101.14Q138.10-101.47 138.52-101.81Q138.94-102.14 139.78-102.14L224.45-102.14Q225.29-102.14 225.62-101.81Q225.96-101.47 225.96-101.14Q225.96-100.63 225.54-100.38Q225.12-100.13 223.94-99.79L213.86-97.78Q211.51-97.10 210.42-96.10Q209.33-95.09 209.33-93.07" fill="#221d16"/></g>
<g transform="translate(31.567999999999998 356)"><path d="M58.80-109.20L58.80-112.22L191.18-112.22L191.18-109.20L58.80-109.20M81.65-226.13L81.65-9.07Q81.65-7.06 83.33-6.05Q85.01-5.04 88.20-4.37L101.81-2.35Q103.82-2.02 103.82-1.18Q103.82-0.67 103.40-0.34Q102.98 0 102.14 0L14.11 0Q13.27 0 12.85-0.34Q12.43-0.67 12.43-1.18Q12.43-2.02 14.45-2.35L28.06-4.37Q31.42-5.04 33.01-6.05Q34.61-7.06 34.61-9.07L34.61-226.13Q34.61-228.14 33.01-229.24Q31.42-230.33 28.06-230.83L14.45-232.85Q12.43-233.18 12.43-234.19Q12.43-234.53 12.85-234.86Q13.27-235.20 14.11-235.20L102.14-235.20Q102.98-235.20 103.40-234.86Q103.82-234.53 103.82-234.19Q103.82-233.18 101.81-232.85L88.20-230.83Q85.01-230.33 83.33-229.24Q81.65-228.14 81.65-226.13M218.74-226.13L218.74-9.07Q218.74-7.06 220.33-6.05Q221.93-5.04 225.12-4.37L238.73-2.35Q240.74-2.02 240.74-1.18Q240.74-0.67 240.41-0.34Q240.07 0 239.23 0L151.20 0Q150.36 0 149.94-0.34Q149.52-0.67 149.52-1.18Q149.52-2.02 151.54-2.35L165.14-4.37Q168.50-5.04 170.10-6.05Q171.70-7.06 171.70-9.07L171.70-226.13Q171.70-228.14 170.10-229.24Q168.50-230.33 165.14-230.83L151.54-232.85Q149.52-233.18 149.52-234.19Q149.52-234.53 149.94-234.86Q150.36-235.20 151.20-235.20L239.23-235.20Q240.07-235.20 240.41-234.86Q240.74-234.53 240.74-234.19Q240.74-233.18 238.73-232.85L225.12-230.83Q221.93-230.33 220.33-229.24Q218.74-228.14 218.74-226.13" fill="#221d16"/></g>

    <g transform="translate(27 0)">
      <path d="M368 64
               C 330 130, 300 214, 284 296
               C 276 338, 269 388, 265 428
               L 256 428
               C 260 386, 268 336, 277 293
               C 294 209, 326 126, 364 60 Z" fill="#221d16"/>
      <path d="M366 62
               C 330 98, 302 148, 288 202
               L 305 198 L 289 218
               C 284 238, 281 256, 280 272
               L 296 267 L 280 288
               C 279 297, 279 305, 280 311
               C 294 301, 306 285, 316 264
               L 320 270
               C 331 242, 340 210, 347 174
               L 353 182
               C 360 144, 364 104, 366 62 Z" fill="#221d16"/>
      <path d="M366 62
               C 350 110, 337 162, 325 216
               C 316 252, 303 293, 280 311
               C 284 313, 290 312, 295 308
               C 312 292, 324 262, 332 228
               C 344 174, 357 116, 366 62 Z" fill="#221d16" opacity="0.3"/>
      <path d="M264 428 L 231 462 L 270 446 Z" fill="#221d16"/>
    </g>

    <g>
      <path d="M256 452 C 206 408, 124 396, 50 406 L 66 386 C 136 378, 210 396, 256 436 Z" fill="#221d16"/>
      <path d="M256 464 C 198 426, 110 416, 32 428 L 44 410 C 120 400, 204 414, 256 452 Z" fill="#221d16"/>
      <path d="M256 476 C 190 442, 94 436, 14 450 L 24 434 C 104 420, 196 432, 256 464 Z" fill="#221d16"/>
      <path d="M256 452 C 306 408, 388 396, 462 406 L 446 386 C 376 378, 302 396, 256 436 Z" fill="#221d16"/>
      <path d="M256 464 C 314 426, 402 416, 480 428 L 468 410 C 392 400, 308 414, 256 452 Z" fill="#221d16"/>
      <path d="M256 476 C 322 442, 418 436, 498 450 L 488 434 C 408 420, 316 432, 256 464 Z" fill="#221d16"/>
      <path d="M242 460 L 270 460 L 265 484 L 247 484 Z" fill="#221d16"/>
    </g>
</svg>
